<svg xmlns="http://www.w3.org/2000/svg" viewBox="0 0 729.5 906.86"><defs><style>.cls-1{fill:#fff;}</style></defs><g id="Layer_2" data-name="Layer 2"><g id="Layer_2-2" data-name="Layer 2"><path class="cls-1" d="M364.76,0C168.37,0,8.24,155.21.34,349.63c-.25,5-.34,10.08-.34,15.13V785.34a121.55,121.55,0,0,0,243.09,0V646.48A117.94,117.94,0,0,1,329.67,532.8l25.74,31.13-31.86,94.75L361,690l37.44-31.32-31.86-94.75,25.74-31.13a117.93,117.93,0,0,1,86.55,113.68v64.8C624.42,663.39,729.5,526.37,729.5,364.76,729.5,163.32,566.21,0,364.76,0Zm0,486.19a129,129,0,1,1,129-129A129,129,0,0,1,364.73,486.19Z"/></g></g></svg>